<?xml version="1.0" encoding="utf-8"?>
<svg viewBox="205.375 359.5 333.344 333.353" width="333.344px" height="333.353px" xmlns="http://www.w3.org/2000/svg">
  <circle cx="372" cy="526" r="166.5" fill="#F2E5BD" transform="matrix(1, 0, 0, 1, -2.842170943040401e-14, 0)"/>
  <path style="fill:#3E8EBC;fill-opacity:1;stroke:none" d="M372.032 359.51c-92.051 0-166.657 74.636-166.657 166.687 0 43.472 16.648 83.049 43.907 112.718 20.201-6.122 40.603-11.817 57.218-16.156 48.062-12.551 130.337-33.765 142.22-60.5-3.343 9.283-14.5 34.156-14.5 34.156-15.225 14.853-84.416 31.327-129.97 40.094-14.532 2.797-31.119 6.03-47.937 9.594 29.975 28.93 70.764 46.75 115.719 46.75 92.05 0 166.687-74.606 166.687-166.656 0-27.328-6.593-53.116-18.25-75.875-30.076 4.852-124.963 22.076-149.281 27.562-26.839 6.055-80.826 17.06-91.594 35.625 6.684-17.08 26.875-61.812 26.875-61.812 14.482-23.765 78.592-40.766 123.313-53.125 10.43-2.883 22.89-6.421 36-10.219-26.71-18.203-58.99-28.844-93.75-28.844z" transform="matrix(1, 0, 0, 1, -2.842170943040401e-14, 0)"/>
  <path style="fill:#052744;fill-opacity:1;stroke:none" d="M279.461 514.126c-2.997 13.986 41.906 27.53 82.392 40.339 40.486 12.809 57.533 19.73 67.465 26.103 16.1-7.7 19.79-19.216 19.79-19.216 4.495-17.731-35.866-40.403-62.78-50.345-26.916-9.942-32.944-14.72-52.466-24.315-51.393 13.602-54.4 27.434-54.4 27.434z" transform="matrix(1, 0, 0, 1, -2.842170943040401e-14, 0)"/>
</svg>